<svg id="Grid" xmlns="http://www.w3.org/2000/svg" viewBox="0 0 68 68"><defs><style>.cls-1{fill:#fff;fill-rule:evenodd;}</style></defs><title>Artboard 6 copy 5</title><path class="cls-1" d="M17.19,35.61a1.61,1.61,0,0,0,1.13,1.67,5.52,5.52,0,0,1,.53,10.3,1.38,1.38,0,0,0-.75,1.73,24.67,24.67,0,0,0,2.48,5,1.39,1.39,0,0,0,1.85.45,5.75,5.75,0,0,1,6.34.66,5.54,5.54,0,0,1,1.48,6.21,1.38,1.38,0,0,0,.7,1.77,24.81,24.81,0,0,0,5.31,1.8,1.4,1.4,0,0,0,1.63-1,5.55,5.55,0,0,1,4.93-4,5.74,5.74,0,0,1,5.41,3.29,1.39,1.39,0,0,0,1.74.75,24.62,24.62,0,0,0,5.1-2.5A1.39,1.39,0,0,0,55.53,60a5.53,5.53,0,0,1,.66-6.35,5.75,5.75,0,0,1,6.22-1.47,1.35,1.35,0,0,0,1.75-.71A24.46,24.46,0,0,0,66,46.13a1.66,1.66,0,0,0-1.16-1.69A5.46,5.46,0,0,1,61,39.57a5.54,5.54,0,0,1,3.28-5.41,1.38,1.38,0,0,0,.74-1.73,24.88,24.88,0,0,0-2.47-5.05,1.39,1.39,0,0,0-1.85-.46,5.74,5.74,0,0,1-6.34-.65,5.53,5.53,0,0,1-1.48-6.21,1.38,1.38,0,0,0-.7-1.77,23.6,23.6,0,0,0-2.67-1.07,24.15,24.15,0,0,0-2.65-.73,1.37,1.37,0,0,0-1.62,1,5.55,5.55,0,0,1-4.93,4,5.77,5.77,0,0,1-5.42-3.3,1.4,1.4,0,0,0-1.73-.75,25.39,25.39,0,0,0-5.1,2.5,1.39,1.39,0,0,0-.46,1.85,5.51,5.51,0,0,1-6.57,7.93l-.29-.1a1.39,1.39,0,0,0-1.78.69,25.24,25.24,0,0,0-1.81,5.38Zm27-2.7a8.33,8.33,0,1,1-10.54,5.25,8.33,8.33,0,0,1,10.54-5.25Zm0,0"/><path class="cls-1" d="M2,15.16a.83.83,0,0,0,.73.72A2.8,2.8,0,0,1,4,21a.71.71,0,0,0-.21.94,13.34,13.34,0,0,0,1.73,2.27.71.71,0,0,0,1,0,2.93,2.93,0,0,1,3.23-.3,2.83,2.83,0,0,1,1.34,3,.7.7,0,0,0,.52.81,12.77,12.77,0,0,0,2.83.38.69.69,0,0,0,.71-.64A2.83,2.83,0,0,1,17.2,25a2.93,2.93,0,0,1,3,1.12.71.71,0,0,0,.94.2,12.64,12.64,0,0,0,2.3-1.74.71.71,0,0,0,.05-1,2.81,2.81,0,0,1-.29-3.23A2.94,2.94,0,0,1,26.16,19a.68.68,0,0,0,.81-.52,12.46,12.46,0,0,0,.38-2.86.82.82,0,0,0-.74-.72,2.8,2.8,0,0,1-1.25-5.08.71.71,0,0,0,.2-.94,12.73,12.73,0,0,0-1.73-2.27.71.71,0,0,0-1,0,2.91,2.91,0,0,1-3.22.29,2.8,2.8,0,0,1-1.35-2.95.7.7,0,0,0-.52-.81,13.89,13.89,0,0,0-1.43-.28A13,13,0,0,0,15,2.72a.7.7,0,0,0-.72.64,2.8,2.8,0,0,1-2.07,2.45,2.92,2.92,0,0,1-3-1.11.72.72,0,0,0-.94-.21A13,13,0,0,0,5.9,6.24a.71.71,0,0,0-.05,1,2.79,2.79,0,0,1-2.5,4.59l-.15,0a.7.7,0,0,0-.82.52A12.46,12.46,0,0,0,2,15.16Zm13.21-4a4.23,4.23,0,1,1-4.74,3.65,4.22,4.22,0,0,1,4.74-3.65Zm0,0"/></svg>