<svg id="Grid" xmlns="http://www.w3.org/2000/svg" viewBox="0 0 68 68"><defs><style>.cls-1{fill:none;stroke:#fff;stroke-miterlimit:10;stroke-width:2px;}.cls-2{fill:#fff;}.cls-3{fill:#3db39e;}</style></defs><title>Artboard 6 copy 4</title><polygon class="cls-1" points="59.21 9.07 59.21 66 8.79 66 8.79 2 50.29 2 59.21 9.07"/><path class="cls-2" d="M18.23,20.85a.64.64,0,0,1-.64-.64V14.44a.64.64,0,0,1,.64-.64H24a.64.64,0,0,1,.64.64v5.77a.64.64,0,0,1-.64.64Zm.64-1.28h4.48V15.08H18.87Z"/><path class="cls-2" d="M51.11,16.51H47.84a.82.82,0,1,0,0,1.63h3.27a.82.82,0,1,0,0-1.63Zm0,0"/><path class="cls-2" d="M44.57,16.51H28.48a.82.82,0,1,0,0,1.63H44.57a.82.82,0,1,0,0-1.63Zm0,0"/><path class="cls-3" d="M24.38,12.91a.62.62,0,0,0-.86.24l-2.36,4.24-1.32-1.6a.63.63,0,1,0-1.08.65l1.83,2.23a.82.82,0,0,0,.46.31h0s.59.1.82-.32l2.72-4.87a.68.68,0,0,0-.23-.89Z"/><path class="cls-2" d="M18.23,32.12a.64.64,0,0,1-.64-.64V25.71a.64.64,0,0,1,.64-.64H24a.64.64,0,0,1,.64.64v5.77a.64.64,0,0,1-.64.64Zm.64-1.28h4.48V26.35H18.87Z"/><path class="cls-2" d="M51.11,27.78H47.84a.82.82,0,1,0,0,1.63h3.27a.82.82,0,1,0,0-1.63Zm0,0"/><path class="cls-2" d="M44.57,27.78H28.48a.82.82,0,1,0,0,1.63H44.57a.82.82,0,1,0,0-1.63Zm0,0"/><path class="cls-3" d="M24.38,24.18a.62.62,0,0,0-.86.24l-2.36,4.24-1.32-1.6a.63.63,0,1,0-1.08.65l1.83,2.23a.82.82,0,0,0,.46.31h0s.59.1.82-.32l2.72-4.87a.68.68,0,0,0-.23-.89Z"/><path class="cls-2" d="M18.23,43.39a.64.64,0,0,1-.64-.64V37a.64.64,0,0,1,.64-.64H24a.64.64,0,0,1,.64.64v5.77a.64.64,0,0,1-.64.64Zm.64-1.28h4.48V37.62H18.87Z"/><path class="cls-2" d="M51.11,39.05H47.84a.82.82,0,1,0,0,1.63h3.27a.82.82,0,1,0,0-1.63Zm0,0"/><path class="cls-2" d="M44.57,39.05H28.48a.82.82,0,1,0,0,1.63H44.57a.82.82,0,1,0,0-1.63Zm0,0"/><path class="cls-2" d="M18.23,54.66a.64.64,0,0,1-.64-.64V48.25a.64.64,0,0,1,.64-.64H24a.64.64,0,0,1,.64.64V54a.64.64,0,0,1-.64.64Zm.64-1.28h4.48V48.89H18.87Z"/><path class="cls-2" d="M51.11,50.32H47.84a.82.82,0,1,0,0,1.63h3.27a.82.82,0,1,0,0-1.63Zm0,0"/><path class="cls-2" d="M44.57,50.32H28.48a.82.82,0,1,0,0,1.63H44.57a.82.82,0,1,0,0-1.63Zm0,0"/><polygon class="cls-2" points="59.21 9.07 50.29 9.07 50.29 2 59.21 9.07"/></svg>