<svg id="Grid" xmlns="http://www.w3.org/2000/svg" viewBox="0 0 60 60"><defs><style>.cls-1{fill:#2b3990;}.cls-2{fill:#3bbeb6;}</style></defs><title>Artboard 6</title><path class="cls-1" d="M29.58,60.19a30,30,0,1,1,30-30,30,30,0,0,1-30,30m0-56.88A26.89,26.89,0,1,0,56.46,30.19,26.92,26.92,0,0,0,29.58,3.31"/><path class="cls-2" d="M39.89,31.75a1.56,1.56,0,0,1-1.56-1.56,8.76,8.76,0,0,0-8.75-8.75,1.56,1.56,0,1,1,0-3.11A11.88,11.88,0,0,1,41.45,30.19a1.56,1.56,0,0,1-1.56,1.56"/><path class="cls-2" d="M46.12,31.75a1.56,1.56,0,0,1-1.56-1.56,15,15,0,0,0-15-15,15.19,15.19,0,0,0-1.91.12,1.56,1.56,0,1,1-.39-3.09,17.65,17.65,0,0,1,2.3-.15,18.12,18.12,0,0,1,18.1,18.1,1.56,1.56,0,0,1-1.56,1.56"/><path class="cls-2" d="M52.35,31.75a1.56,1.56,0,0,1-1.56-1.56A21.23,21.23,0,0,0,22.87,10.06a1.55,1.55,0,1,1-1-2.95,24.1,24.1,0,0,1,7.69-1.25A24.36,24.36,0,0,1,53.91,30.19a1.56,1.56,0,0,1-1.56,1.56"/><path class="cls-2" d="M52.34,31.75H29.58a1.56,1.56,0,1,1,0-3.11H52.34a1.56,1.56,0,1,1,0,3.11"/><path class="cls-1" d="M33.66,30.19a4.08,4.08,0,1,1-4.08-4.08,4.09,4.09,0,0,1,4.08,4.08"/></svg>