<svg id="Grid" xmlns="http://www.w3.org/2000/svg" viewBox="0 0 60 60"><defs><style>.cls-1{fill:#2b3990;}.cls-2{fill:#3bbeb6;}</style></defs><title>Artboard 6 copy</title><path class="cls-1" d="M45.66,26.05l2.08.64A5.86,5.86,0,0,1,51.62,34l-1.4,4.57a5.86,5.86,0,0,1-7.32,3.88l-2.08-.63a5.86,5.86,0,0,1-3.88-7.32l1.4-4.57A5.88,5.88,0,0,1,45.66,26.05ZM43.28,41.22a4.57,4.57,0,0,0,5.7-3l1.4-4.57a4.56,4.56,0,0,0-3-5.69l-2.07-.64a4.57,4.57,0,0,0-5.7,3l-1.4,4.57a4.56,4.56,0,0,0,3,5.69Z"/><path class="cls-1" d="M39.11,39.35a.63.63,0,0,1,.27.16.64.64,0,0,1,0,.92,1.61,1.61,0,0,0-.36.62A1.52,1.52,0,0,0,40,43l2.9.89a1.52,1.52,0,0,0,1.9-1,1.44,1.44,0,0,0,0-.71.65.65,0,0,1,.52-.76.64.64,0,0,1,.76.51,2.77,2.77,0,0,1-.07,1.34,2.82,2.82,0,0,1-3.53,1.87l-2.91-.89a2.83,2.83,0,0,1-1.87-3.52,3,3,0,0,1,.69-1.16.66.66,0,0,1,.65-.16Z"/><path class="cls-1" d="M42.85,44a.65.65,0,0,1,.43.81l-.42,1.38a.65.65,0,0,1-1.25-.38L42,44.47A.65.65,0,0,1,42.85,44Z"/><path class="cls-1" d="M39.94,43.15a.65.65,0,0,1,.44.81L40,45.34A.65.65,0,1,1,38.71,45l.42-1.38A.65.65,0,0,1,39.94,43.15Z"/><path class="cls-1" d="M45.43,30.52a.66.66,0,0,1,.43.82L44,37.56a.65.65,0,1,1-1.25-.38L44.61,31A.66.66,0,0,1,45.43,30.52Z"/><path class="cls-1" d="M35.13,30.77l3.11,1A.65.65,0,1,1,37.86,33L34.75,32a.65.65,0,0,1,.38-1.25Z"/><path class="cls-1" d="M50.7,35.55l3.11,1a.65.65,0,0,1-.38,1.25l-3.11-1a.65.65,0,1,1,.38-1.24Z"/><path class="cls-1" d="M55,29.81a.67.67,0,0,1,.43.41.65.65,0,0,1-.4.83l-3.29,1.17A.65.65,0,0,1,51.25,31l3.3-1.17a.61.61,0,0,1,.4,0Z"/><path class="cls-1" d="M37.28,36.29a.64.64,0,0,1,.42.41.65.65,0,0,1-.39.83L34,38.7a.65.65,0,0,1-.43-1.23l3.29-1.17a.64.64,0,0,1,.41,0Z"/><path class="cls-1" d="M37.93,24.59a.67.67,0,0,1,.34.24l2.07,2.81a.65.65,0,0,1-1.05.78L37.22,25.6a.64.64,0,0,1,.14-.91.62.62,0,0,1,.57-.1Z"/><path class="cls-1" d="M48.94,39.87a.64.64,0,0,1,.33.23l2.07,2.82a.65.65,0,0,1-1.05.77l-2.07-2.82a.65.65,0,0,1,.14-.91A.67.67,0,0,1,48.94,39.87Z"/><path class="cls-1" d="M30,60A30,30,0,1,1,60,30,30,30,0,0,1,30,60M30,3.11A26.89,26.89,0,1,0,56.88,30,26.91,26.91,0,0,0,30,3.11"/><path class="cls-2" d="M40.31,31.56A1.56,1.56,0,0,1,38.75,30,8.75,8.75,0,0,0,30,21.25a1.56,1.56,0,1,1,0-3.12A11.88,11.88,0,0,1,41.87,30a1.56,1.56,0,0,1-1.56,1.56"/><path class="cls-2" d="M46.54,31.56A1.56,1.56,0,0,1,45,30,15,15,0,0,0,30,15a15.19,15.19,0,0,0-1.91.12,1.56,1.56,0,0,1-1.74-1.35,1.54,1.54,0,0,1,1.35-1.74A17.65,17.65,0,0,1,30,11.9,18.12,18.12,0,0,1,48.1,30a1.56,1.56,0,0,1-1.56,1.56"/><path class="cls-2" d="M52.77,31.56A1.55,1.55,0,0,1,51.22,30,21.21,21.21,0,0,0,23.3,9.87a1.56,1.56,0,0,1-1-3A24.35,24.35,0,0,1,54.33,30a1.56,1.56,0,0,1-1.56,1.56"/><path class="cls-2" d="M52.76,31.56H30a1.56,1.56,0,0,1,0-3.12H52.76a1.56,1.56,0,1,1,0,3.12"/><path class="cls-1" d="M34.08,30A4.08,4.08,0,1,1,30,25.92,4.08,4.08,0,0,1,34.08,30"/></svg>