<svg id="Grid" xmlns="http://www.w3.org/2000/svg" viewBox="0 0 68 68"><defs><style>.cls-1{fill:#fff;}</style></defs><title>Artboard 6 copy 6</title><path class="cls-1" d="M51.65,55H16.35l3.54-17.19a7.8,7.8,0,0,1,7.66-6.24h12.9a7.8,7.8,0,0,1,7.66,6.24Zm-32-2.7H48.34L45.46,38.35a5.13,5.13,0,0,0-5-4.09H27.55a5.13,5.13,0,0,0-5,4.09Z"/><rect class="cls-1" x="12.59" y="53.25" width="42.81" height="5.9"/><rect class="cls-1" x="32.65" y="8.85" width="2.7" height="13.85" rx="1.35"/><rect class="cls-1" x="18.87" y="12.54" width="2.7" height="13.74" rx="1.35" transform="translate(-7 12.71) rotate(-30)"/><rect class="cls-1" x="8.71" y="22.68" width="2.7" height="13.56" rx="1.35" transform="translate(-20.49 23.44) rotate(-60)"/><rect class="cls-1" x="50.52" y="28.28" width="14.25" height="2.7" rx="1.35" transform="translate(-7.09 32.79) rotate(-30)"/><rect class="cls-1" x="41.27" y="17.86" width="13.26" height="2.7" rx="1.35" transform="translate(7.32 51.09) rotate(-60)"/><path class="cls-1" d="M29.55,41.64h0l-2,.94-.4-1.81,2.74-1.27h2V49.82H29.55Z"/><path class="cls-1" d="M42.91,44.61c0,3.2-1.28,5.39-3.92,5.39s-3.85-2.4-3.86-5.32,1.27-5.36,3.94-5.36S42.91,41.78,42.91,44.61Zm-5.35.07c0,2.36.55,3.49,1.49,3.49S40.5,47,40.5,44.64,40,41.15,39,41.15,37.54,42.28,37.56,44.68Z"/></svg>