<svg id="Grid" xmlns="http://www.w3.org/2000/svg" viewBox="0 0 60 60"><defs><style>.cls-1{fill:#2b3990;}.cls-2{fill:#3bbeb6;}</style></defs><title>Artboard 6 copy 3</title><path class="cls-1" d="M54.84,44.75a29.27,29.27,0,0,1-6.84,8,5.36,5.36,0,1,1,6.84-8Z"/><path class="cls-1" d="M48,52.77a5.36,5.36,0,0,0,6.84-8A29.06,29.06,0,0,0,56.68,41a9.32,9.32,0,1,1-12.1,14.19A28.41,28.41,0,0,0,48,52.77Z"/><path class="cls-1" d="M56.68,41a9.31,9.31,0,0,0-14.29,2.86l-7.08-2.41a7.87,7.87,0,1,0-15.65-1.19,7.69,7.69,0,0,0,.56,2.88l-6.4,3.94a6.16,6.16,0,0,0-8.53-.24A29.3,29.3,0,0,1,0,30H29.4V.6A29.42,29.42,0,0,1,56.68,41Z"/><path class="cls-1" d="M27.54,35.72A4.53,4.53,0,1,1,23,40.25,4.53,4.53,0,0,1,27.54,35.72Z"/><path class="cls-2" d="M25.64,2.5V26.25H1.9A23.74,23.74,0,0,1,25.64,2.5Z"/><path class="cls-1" d="M34.44,44.05l7.06,2.41a9.07,9.07,0,0,0-.15,1.66,9.27,9.27,0,0,0,3.23,7.06,29.43,29.43,0,0,1-30.32,0,6.15,6.15,0,0,0,1.33-3.82,5.92,5.92,0,0,0-.33-2l6.41-3.93a7.87,7.87,0,0,0,12.77-1.43Z"/><path class="cls-1" d="M12.07,53.75a25.25,25.25,0,0,0,2.19,1.46,6.16,6.16,0,1,1-9-8.38c.5.72,1,1.42,1.61,2.09a3.5,3.5,0,0,0-1,2.47,3.54,3.54,0,0,0,6.18,2.36Z"/><path class="cls-1" d="M13,51.39a3.54,3.54,0,0,1-.91,2.36A29.24,29.24,0,0,1,6.9,48.92a3.5,3.5,0,0,1,2.53-1.07A3.54,3.54,0,0,1,13,51.39Z"/></svg>