<svg id="Grid" xmlns="http://www.w3.org/2000/svg" viewBox="0 0 68 68"><defs><style>.cls-1{fill:#fff;}</style></defs><title>Artboard 6 copy 7</title><path class="cls-1" d="M62.09,46v6.53a10.52,10.52,0,0,1-10.5,10.5H40.75a.72.72,0,0,1,0-1.44H51.59a9.06,9.06,0,0,0,9-9V47.29A9.79,9.79,0,0,0,62.09,46Z"/><path class="cls-1" d="M37.91,66H30.09a3.67,3.67,0,0,1,0-7.33h7.82a3.67,3.67,0,0,1,0,7.33Zm-7.82-5.87a2.2,2.2,0,0,0,0,4.4h7.82a2.2,2.2,0,1,0,0-4.4Z"/><path class="cls-1" d="M34,2A28.12,28.12,0,0,0,5.92,30.09v3.59c.23-.25.48-.48.73-.71s.48-.38.73-.55v-.59a2.71,2.71,0,0,1,0-.29,8.19,8.19,0,0,1,0-.87C8.21,19.87,19.83,11.28,34,11.28s25.81,8.6,26.58,19.4a8.19,8.19,0,0,1,0,.87,2.53,2.53,0,0,1,0,.28v.6a7.74,7.74,0,0,1,.73.55c.25.23.5.46.73.71v-3.6A28.13,28.13,0,0,0,34,2Zm0,7.82c-11.37,0-21.19,5.32-25.6,13a26.63,26.63,0,0,1,51.2,0C55.19,15.14,45.38,9.82,34,9.82Z"/><path class="cls-1" d="M16.41,28.14H14.46a1.94,1.94,0,0,0-1.81,1.23,1.75,1.75,0,0,0-.15.72V49.63a1.83,1.83,0,0,0,.14.71,1.94,1.94,0,0,0,1.82,1.24h1.95a2,2,0,0,0,1.95-1.95V30.09A2,2,0,0,0,16.41,28.14Zm1.22,21.49a1.22,1.22,0,0,1-1.22,1.22H14.46a1.23,1.23,0,0,1-1.23-1.22V30.09a1.23,1.23,0,0,1,1.23-1.22h1.95a1.22,1.22,0,0,1,1.22,1.22Z"/><path class="cls-1" d="M55.35,29.37a1.94,1.94,0,0,0-1.81-1.23H51.59a2,2,0,0,0-2,1.95V49.63a2,2,0,0,0,2,1.95h1.95a1.94,1.94,0,0,0,1.82-1.24,1.83,1.83,0,0,0,.14-.71V30.09A1.75,1.75,0,0,0,55.35,29.37Zm-.58,20.26a1.23,1.23,0,0,1-1.23,1.22H51.59a1.22,1.22,0,0,1-1.22-1.22V30.09a1.22,1.22,0,0,1,1.22-1.22h1.95a1.23,1.23,0,0,1,1.23,1.22Z"/><path class="cls-1" d="M11.77,30.12a9.78,9.78,0,0,0-4.38,1.42,6.39,6.39,0,0,0-.74.5c-.25.19-.5.4-.73.61A9.74,9.74,0,0,0,6.4,47.48c.2.17.42.32.64.48h0c.22.15.45.29.68.42s.36.2.54.28l.25.12a8.94,8.94,0,0,0,1.34.49l.2,0,.11,0a5,5,0,0,0,.56.11l.29,0c.2,0,.42.06.62.08h.13c.24,0,.49,0,.73,0V30.09C12.26,30.09,12,30.1,11.77,30.12Zm0,18.75a9,9,0,0,1-5.83-2.82,9,9,0,0,1,0-12.37c.23-.25.48-.48.73-.71s.48-.38.73-.55a9,9,0,0,1,4.39-1.57Z"/><path class="cls-1" d="M62.09,32.66c-.23-.21-.48-.42-.73-.61a6.39,6.39,0,0,0-.74-.5,9.71,9.71,0,0,0-4.39-1.43c-.23,0-.49,0-.73,0V49.63c.24,0,.5,0,.73,0a9.59,9.59,0,0,0,4.4-1.43,9.22,9.22,0,0,0,1.46-1.11,9.74,9.74,0,0,0,0-14.4ZM60.63,47.29a9.16,9.16,0,0,1-4.4,1.58v-18a9,9,0,0,1,4.4,1.58,7.74,7.74,0,0,1,.73.55c.25.23.5.46.73.71a9,9,0,0,1,0,12.34A9.79,9.79,0,0,1,60.63,47.29Z"/><path class="cls-1" d="M18.36,32V49.63a2,2,0,0,1-1.95,1.95h-1v-.73h1a1.22,1.22,0,0,0,1.22-1.22V32Z"/><path class="cls-1" d="M55.5,32V49.63a1.83,1.83,0,0,1-.14.71,1.94,1.94,0,0,1-1.82,1.24h-1v-.73h1a1.23,1.23,0,0,0,1.23-1.22V32Z"/><path class="cls-1" d="M12.5,34.45V49.63c-.24,0-.49,0-.73,0h-.13c-.2,0-.42,0-.62-.08l-.29,0a5,5,0,0,1-.56-.11l-.11,0-.2,0a11.86,11.86,0,0,1-1.34-.49l-.25-.12c-.18-.08-.36-.18-.54-.28s-.46-.27-.68-.42H7c-.22-.16-.44-.31-.64-.48a8.83,8.83,0,0,1-.46-1.43,9,9,0,0,0,5.83,2.82V34.71C12,34.61,12.26,34.53,12.5,34.45Z"/><path class="cls-1" d="M34,46.46a.74.74,0,0,1-.73-.74V37.91a.73.73,0,1,1,1.46,0v7.81A.73.73,0,0,1,34,46.46Z"/><path class="cls-1" d="M35.47,46.46H32.54a.74.74,0,1,1,0-1.47h2.93a.74.74,0,0,1,0,1.47Z"/><path class="cls-1" d="M35.47,38.64H32.54a.74.74,0,1,1,0-1.47h2.93a.74.74,0,0,1,0,1.47Z"/><circle class="cls-1" cx="34" cy="34.98" r="0.98"/><path class="cls-1" d="M25.21,56.22a.71.71,0,0,1-.32-.07.73.73,0,0,1-.41-.66V31.07a2.69,2.69,0,0,1,2.68-2.69H40.84a2.7,2.7,0,0,1,2.69,2.69V48.65a2.7,2.7,0,0,1-2.69,2.69H31.62l-6,4.73A.74.74,0,0,1,25.21,56.22Zm1.95-26.37a1.22,1.22,0,0,0-1.22,1.22V54l5-3.95a.75.75,0,0,1,.45-.16h9.48a1.22,1.22,0,0,0,1.22-1.22V31.07a1.22,1.22,0,0,0-1.22-1.22Z"/><path class="cls-1" d="M16.41,27.4H14.46a2.68,2.68,0,0,0-2.59,2,2.39,2.39,0,0,0-.1.71V49.63a2.39,2.39,0,0,0,.1.71,2.68,2.68,0,0,0,2.59,2h1.95a2.7,2.7,0,0,0,2.69-2.69V30.09A2.7,2.7,0,0,0,16.41,27.4Zm1.22,22.23a1.22,1.22,0,0,1-1.22,1.22H14.46a1.23,1.23,0,0,1-1.23-1.22V30.09a1.23,1.23,0,0,1,1.23-1.22h1.95a1.22,1.22,0,0,1,1.22,1.22Z"/><path class="cls-1" d="M56.13,29.38a2.68,2.68,0,0,0-2.59-2H51.59a2.7,2.7,0,0,0-2.69,2.69V49.63a2.7,2.7,0,0,0,2.69,2.69h1.95a2.68,2.68,0,0,0,2.59-2,2.39,2.39,0,0,0,.1-.71V30.09A2.39,2.39,0,0,0,56.13,29.38ZM54.77,49.63a1.23,1.23,0,0,1-1.23,1.22H51.59a1.22,1.22,0,0,1-1.22-1.22V30.09a1.22,1.22,0,0,1,1.22-1.22h1.95a1.23,1.23,0,0,1,1.23,1.22Z"/><path class="cls-1" d="M62.09,31.7a7.64,7.64,0,0,0-.73-.54l0,0a6.57,6.57,0,0,0-.75-.46,10.33,10.33,0,0,0-4.45-1.3l-.63,0h-.15a.72.72,0,0,0-.58.72V49.63a.72.72,0,0,0,.59.71.32.32,0,0,0,.14,0l.63,0A10.21,10.21,0,0,0,60.63,49a9.38,9.38,0,0,0,1.46-1,10.47,10.47,0,0,0,0-16.32Zm-5.86-.85a9,9,0,0,1,4.4,1.58,7.74,7.74,0,0,1,.73.55c.25.23.5.46.73.71a9,9,0,0,1,0,12.34,9.79,9.79,0,0,1-1.46,1.26,9.16,9.16,0,0,1-4.4,1.58Z"/><path class="cls-1" d="M12.65,29.37H12.5l-.63,0a10.46,10.46,0,0,0-4.44,1.29,6.57,6.57,0,0,0-.75.46l0,0a7.64,7.64,0,0,0-.73.54,10.49,10.49,0,0,0,5.95,18.65l.63,0a.34.34,0,0,0,.14,0,.73.73,0,0,0,.59-.71V30.09A.73.73,0,0,0,12.65,29.37Zm-.88,19.5a9,9,0,0,1-5.83-2.82,9,9,0,0,1,0-12.37c.23-.25.48-.48.73-.71s.48-.38.73-.55a9,9,0,0,1,4.39-1.57Z"/></svg>