<svg id="Grid" xmlns="http://www.w3.org/2000/svg" viewBox="0 0 60 60"><defs><style>.cls-1{fill:#2b3990;}.cls-2{fill:#3bbeb6;}</style></defs><title>Artboard 6 copy 2</title><polygon class="cls-1" points="33.55 28.9 31.11 28.9 31.11 26.46 28.9 26.46 28.9 28.9 26.46 28.9 26.46 31.11 28.9 31.11 28.9 33.55 31.11 33.55 31.11 31.11 33.55 31.11 33.55 28.9"/><rect class="cls-2" x="28.9" width="2.21" height="22.73"/><rect class="cls-2" x="28.9" y="37.27" width="2.21" height="22.73"/><rect class="cls-2" x="37.27" y="28.9" width="22.73" height="2.21"/><rect class="cls-2" y="28.9" width="22.73" height="2.21"/><polygon class="cls-1" points="8.21 18.96 6 18.96 6 6.94 18.62 6.94 18.62 9.15 8.21 9.15 8.21 18.96"/><polygon class="cls-1" points="54.01 18.96 51.8 18.96 51.8 9.15 41.38 9.15 41.38 6.94 54.01 6.94 54.01 18.96"/><polygon class="cls-1" points="18.62 53.06 6 53.06 6 41.04 8.21 41.04 8.21 50.85 18.62 50.85 18.62 53.06"/><polygon class="cls-1" points="54.01 53.06 41.38 53.06 41.38 50.85 51.8 50.85 51.8 41.04 54.01 41.04 54.01 53.06"/><polygon class="cls-1" points="17.13 23.26 14.92 23.26 14.92 15.49 23.05 15.49 23.05 17.7 17.13 17.7 17.13 23.26"/><polygon class="cls-1" points="45.09 23.26 42.88 23.26 42.88 17.7 36.96 17.7 36.96 15.49 45.09 15.49 45.09 23.26"/><polygon class="cls-1" points="23.05 44.51 14.92 44.51 14.92 36.75 17.13 36.75 17.13 42.3 23.05 42.3 23.05 44.51"/><polygon class="cls-1" points="45.09 44.51 36.96 44.51 36.96 42.3 42.88 42.3 42.88 36.75 45.09 36.75 45.09 44.51"/></svg>